<?xml version="1.0" encoding="UTF-8"?>
<!DOCTYPE svg PUBLIC "-//W3C//DTD SVG 1.1//EN" "http://www.w3.org/Graphics/SVG/1.1/DTD/svg11.dtd">
<svg xmlns="http://www.w3.org/2000/svg" version="1.1" width="300px" height="300px" style="shape-rendering:geometricPrecision; text-rendering:geometricPrecision; image-rendering:optimizeQuality; fill-rule:evenodd; clip-rule:evenodd" xmlns:xlink="http://www.w3.org/1999/xlink">
<g><path style="opacity:0.935" fill="#0994e8" d="M 202.5,106.5 C 201.305,106.678 200.138,107.011 199,107.5C 197.97,107.164 197.47,106.497 197.5,105.5C 198.507,97.6722 195.174,94.5056 187.5,96C 184.598,97.9397 183.598,100.44 184.5,103.5C 187.489,102.825 190.489,103.158 193.5,104.5C 193.291,105.086 192.957,105.586 192.5,106C 188.906,106.136 185.406,106.302 182,106.5C 177.294,104.394 172.461,102.727 167.5,101.5C 167.649,100.448 167.483,99.448 167,98.5C 164.532,97.8957 162.532,96.5624 161,94.5C 158.866,96.5784 159.032,98.4117 161.5,100C 169.164,103.741 175.998,108.574 182,114.5C 183.145,120.732 181.312,125.899 176.5,130C 175.552,130.483 174.552,130.649 173.5,130.5C 173.035,125.981 173.035,121.981 173.5,118.5C 174.084,115.715 173.084,114.048 170.5,113.5C 170.027,112.094 169.027,111.427 167.5,111.5C 167.027,110.094 166.027,109.427 164.5,109.5C 164.027,108.094 163.027,107.427 161.5,107.5C 161.027,106.094 160.027,105.427 158.5,105.5C 158.027,104.094 157.027,103.427 155.5,103.5C 155.5,102.833 155.167,102.5 154.5,102.5C 154.167,102.5 153.833,102.5 153.5,102.5C 153.5,101.833 153.167,101.5 152.5,101.5C 152.5,100.833 152.167,100.5 151.5,100.5C 150.167,100.5 148.833,100.5 147.5,100.5C 146.833,100.5 146.5,100.833 146.5,101.5C 145.833,101.5 145.5,101.833 145.5,102.5C 145.167,102.5 144.833,102.5 144.5,102.5C 143.833,102.5 143.5,102.833 143.5,103.5C 142.833,103.5 142.5,103.833 142.5,104.5C 141.508,104.328 140.842,104.662 140.5,105.5C 139.833,105.5 139.5,105.833 139.5,106.5C 138.508,106.328 137.842,106.662 137.5,107.5C 136.833,107.5 136.5,107.833 136.5,108.5C 135.508,108.328 134.842,108.662 134.5,109.5C 133.833,109.5 133.5,109.833 133.5,110.5C 132.508,110.328 131.842,110.662 131.5,111.5C 129.973,111.427 128.973,112.094 128.5,113.5C 127.833,113.5 127.5,113.833 127.5,114.5C 125.952,114.821 125.285,115.821 125.5,117.5C 125.5,118.167 125.5,118.833 125.5,119.5C 125.5,120.833 125.5,122.167 125.5,123.5C 125.5,125.833 125.5,128.167 125.5,130.5C 120.894,129.363 118.06,126.363 117,121.5C 116.333,119.167 116.333,116.833 117,114.5C 122.968,108.586 129.801,103.752 137.5,100C 139.848,98.3116 140.015,96.4783 138,94.5C 129.208,103.317 118.708,107.15 106.5,106C 106.043,105.586 105.709,105.086 105.5,104.5C 108.747,103.35 112.08,102.517 115.5,102C 114.053,96.1077 110.387,94.1077 104.5,96C 99.5002,100.794 100,105.294 106,109.5C 106.26,113.25 106.927,116.916 108,120.5C 110.054,123.047 111.887,125.714 113.5,128.5C 113.19,129.738 112.69,129.738 112,128.5C 111.517,129.448 111.351,130.448 111.5,131.5C 109.446,131.365 107.779,132.032 106.5,133.5C 106.662,131.473 106.495,129.473 106,127.5C 102.869,118.824 99.3691,110.324 95.5,102C 96.475,94.8561 100.475,90.3561 107.5,88.5C 108.441,85.0987 110.441,82.5987 113.5,81C 136.124,79.3869 158.791,79.0536 181.5,80C 183.949,80.7246 186.283,81.7246 188.5,83C 189.833,85.3333 191.167,87.6667 192.5,90C 201.077,92.3958 204.411,97.8958 202.5,106.5 Z M 155.5,103.5 C 157.027,103.427 158.027,104.094 158.5,105.5C 156.973,105.573 155.973,104.906 155.5,103.5 Z M 158.5,105.5 C 160.027,105.427 161.027,106.094 161.5,107.5C 159.973,107.573 158.973,106.906 158.5,105.5 Z M 161.5,107.5 C 163.027,107.427 164.027,108.094 164.5,109.5C 162.973,109.573 161.973,108.906 161.5,107.5 Z M 164.5,109.5 C 166.027,109.427 167.027,110.094 167.5,111.5C 165.973,111.573 164.973,110.906 164.5,109.5 Z M 131.5,111.5 C 131.027,112.906 130.027,113.573 128.5,113.5C 128.973,112.094 129.973,111.427 131.5,111.5 Z M 167.5,111.5 C 169.027,111.427 170.027,112.094 170.5,113.5C 168.973,113.573 167.973,112.906 167.5,111.5 Z M 170.5,113.5 C 173.084,114.048 174.084,115.715 173.5,118.5C 172.692,116.78 171.692,115.113 170.5,113.5 Z M 127.5,114.5 C 127.068,115.71 126.401,116.71 125.5,117.5C 125.285,115.821 125.952,114.821 127.5,114.5 Z M 143.5,114.5 C 144.833,114.5 146.167,114.5 147.5,114.5C 147.5,116.167 147.5,117.833 147.5,119.5C 142.021,120.39 140.688,118.723 143.5,114.5 Z M 151.5,114.5 C 154.833,113.833 156.833,115.167 157.5,118.5C 155.604,119.466 153.604,119.799 151.5,119.5C 151.5,117.833 151.5,116.167 151.5,114.5 Z M 142.5,123.5 C 144.199,123.34 145.866,123.506 147.5,124C 149.242,129.089 147.575,130.589 142.5,128.5C 141.929,126.64 141.929,124.973 142.5,123.5 Z M 151.5,123.5 C 157.798,122.931 158.798,124.764 154.5,129C 153.552,129.483 152.552,129.649 151.5,129.5C 151.5,127.5 151.5,125.5 151.5,123.5 Z"/></g>
<g><path style="opacity:0.993" fill="#04296d" d="M 147.5,100.5 C 148.833,100.5 150.167,100.5 151.5,100.5C 152.167,100.5 152.5,100.833 152.5,101.5C 153.167,101.5 153.5,101.833 153.5,102.5C 153.833,102.5 154.167,102.5 154.5,102.5C 155.167,102.5 155.5,102.833 155.5,103.5C 155.973,104.906 156.973,105.573 158.5,105.5C 158.973,106.906 159.973,107.573 161.5,107.5C 161.973,108.906 162.973,109.573 164.5,109.5C 164.973,110.906 165.973,111.573 167.5,111.5C 167.973,112.906 168.973,113.573 170.5,113.5C 171.692,115.113 172.692,116.78 173.5,118.5C 173.035,121.981 173.035,125.981 173.5,130.5C 169.33,133.216 164.663,134.716 159.5,135C 160.551,136.385 161.884,137.385 163.5,138C 166.918,137.793 170.251,137.959 173.5,138.5C 173.443,139.609 173.11,140.609 172.5,141.5C 172.5,144.167 172.5,146.833 172.5,149.5C 171.508,149.328 170.842,149.662 170.5,150.5C 156.833,150.5 143.167,150.5 129.5,150.5C 128.833,150.5 128.167,150.5 127.5,150.5C 127.5,149.833 127.167,149.5 126.5,149.5C 126.737,148.209 126.404,147.209 125.5,146.5C 125.5,145.833 125.5,145.167 125.5,144.5C 126.833,143.5 126.833,142.5 125.5,141.5C 125.5,140.5 125.5,139.5 125.5,138.5C 128.11,137.278 130.777,137.278 133.5,138.5C 141.08,135.327 141.08,134.327 133.5,135.5C 132.335,134.509 131.168,133.509 130,132.5C 127.906,133.633 126.406,132.966 125.5,130.5C 125.5,128.167 125.5,125.833 125.5,123.5C 126.833,122.167 126.833,120.833 125.5,119.5C 125.5,118.833 125.5,118.167 125.5,117.5C 126.401,116.71 127.068,115.71 127.5,114.5C 128.167,114.5 128.5,114.167 128.5,113.5C 130.027,113.573 131.027,112.906 131.5,111.5C 132.492,111.672 133.158,111.338 133.5,110.5C 134.167,110.5 134.5,110.167 134.5,109.5C 135.492,109.672 136.158,109.338 136.5,108.5C 137.167,108.5 137.5,108.167 137.5,107.5C 138.492,107.672 139.158,107.338 139.5,106.5C 140.167,106.5 140.5,106.167 140.5,105.5C 141.492,105.672 142.158,105.338 142.5,104.5C 143.167,104.5 143.5,104.167 143.5,103.5C 144.167,103.5 144.5,103.167 144.5,102.5C 144.833,102.5 145.167,102.5 145.5,102.5C 146.167,102.5 146.5,102.167 146.5,101.5C 147.167,101.5 147.5,101.167 147.5,100.5 Z M 143.5,114.5 C 140.688,118.723 142.021,120.39 147.5,119.5C 147.5,117.833 147.5,116.167 147.5,114.5C 146.167,114.5 144.833,114.5 143.5,114.5 Z M 151.5,114.5 C 151.5,116.167 151.5,117.833 151.5,119.5C 153.604,119.799 155.604,119.466 157.5,118.5C 156.833,115.167 154.833,113.833 151.5,114.5 Z M 142.5,123.5 C 141.929,124.973 141.929,126.64 142.5,128.5C 147.575,130.589 149.242,129.089 147.5,124C 145.866,123.506 144.199,123.34 142.5,123.5 Z M 151.5,123.5 C 151.5,125.5 151.5,127.5 151.5,129.5C 152.552,129.649 153.552,129.483 154.5,129C 158.798,124.764 157.798,122.931 151.5,123.5 Z"/></g>
<g><path style="opacity:0.971" fill="#0393e9" d="M 197.5,105.5 C 197.47,106.497 197.97,107.164 199,107.5C 200.138,107.011 201.305,106.678 202.5,106.5C 201.223,108.95 199.723,111.283 198,113.5C 197.576,119.442 195.576,124.775 192,129.5C 191.667,139.167 191.333,148.833 191,158.5C 188.831,162.01 185.664,164.177 181.5,165C 158.791,165.946 136.124,165.613 113.5,164C 109.479,162.132 107.313,158.965 107,154.5C 106.5,147.508 106.334,140.508 106.5,133.5C 107.779,132.032 109.446,131.365 111.5,131.5C 111.351,130.448 111.517,129.448 112,128.5C 112.69,129.738 113.19,129.738 113.5,128.5C 118.328,130.904 122.328,134.237 125.5,138.5C 125.5,139.5 125.5,140.5 125.5,141.5C 125.5,142.5 125.5,143.5 125.5,144.5C 125.5,145.167 125.5,145.833 125.5,146.5C 125.263,147.791 125.596,148.791 126.5,149.5C 127.167,149.5 127.5,149.833 127.5,150.5C 128.167,150.5 128.833,150.5 129.5,150.5C 143.167,151.833 156.833,151.833 170.5,150.5C 171.492,150.672 172.158,150.338 172.5,149.5C 173.833,146.833 173.833,144.167 172.5,141.5C 173.11,140.609 173.443,139.609 173.5,138.5C 178.798,133.703 183.965,128.703 189,123.5C 191.782,119.297 193.116,114.63 193,109.5C 194.371,107.959 195.871,106.625 197.5,105.5 Z"/></g>
<g><path style="opacity:0.954" fill="#032468" d="M 122.5,177.5 C 124.859,178.176 127.192,179.009 129.5,180C 130.833,181.333 130.833,182.667 129.5,184C 127.134,184.562 124.801,184.396 122.5,183.5C 117.922,184.868 116.422,187.868 118,192.5C 118.833,193.333 119.667,194.167 120.5,195C 123.486,194.872 126.486,194.872 129.5,195C 130.833,196.333 130.833,197.667 129.5,199C 119.526,203.498 113.526,200.331 111.5,189.5C 111.791,182.226 115.458,178.226 122.5,177.5 Z"/></g>
<g><path style="opacity:0.921" fill="#02266a" d="M 138.5,178.5 C 148.31,176.395 153.976,180.228 155.5,190C 153.397,199.223 147.73,202.556 138.5,200C 136.714,199.215 135.214,198.049 134,196.5C 130.88,189.148 132.38,183.148 138.5,178.5 Z M 141.5,183.5 C 147.33,183.161 149.83,185.827 149,191.5C 145.283,196.815 141.617,196.815 138,191.5C 137.279,187.946 138.446,185.28 141.5,183.5 Z"/></g>
<g><path style="opacity:0.933" fill="#03276a" d="M 156.5,178.5 C 161.179,178.334 165.845,178.501 170.5,179C 175.833,183.667 175.833,188.333 170.5,193C 167.833,193.333 165.167,193.667 162.5,194C 162.092,196.908 160.925,199.408 159,201.5C 158.586,201.043 158.086,200.709 157.5,200.5C 156.503,193.197 156.169,185.863 156.5,178.5 Z M 162.5,183.5 C 166.126,182.861 167.959,184.194 168,187.5C 163.085,189.679 161.251,188.346 162.5,183.5 Z"/></g>
<g><path style="opacity:0.929" fill="#022569" d="M 210.5,177.5 C 220.777,178.705 224.61,184.372 222,194.5C 220.833,197 219,198.833 216.5,200C 203.381,201.883 198.214,196.383 201,183.5C 203.551,180.319 206.718,178.319 210.5,177.5 Z M 209.5,183.5 C 218.157,184.985 219.491,188.818 213.5,195C 207.714,195.881 205.214,193.381 206,187.5C 206.69,185.65 207.856,184.316 209.5,183.5 Z"/></g>
<g><path style="opacity:0.921" fill="#03266b" d="M 235.5,177.5 C 239.937,177.305 241.604,179.139 240.5,183C 238.899,183.273 237.399,183.773 236,184.5C 234.139,207.145 231.973,207.145 229.5,184.5C 225.62,184.29 223.953,182.29 224.5,178.5C 228.371,178.815 232.038,178.482 235.5,177.5 Z"/></g>
<g><path style="opacity:0.924" fill="#02276c" d="M 99.5,177.5 C 100.708,178.234 102.041,178.567 103.5,178.5C 103.943,182.529 102.109,184.529 98,184.5C 97.8295,189.864 97.3295,195.198 96.5,200.5C 95.5,201.833 94.5,201.833 93.5,200.5C 92.6705,195.198 92.1705,189.864 92,184.5C 90.6012,183.773 89.1012,183.273 87.5,183C 86.1667,181.667 86.1667,180.333 87.5,179C 91.6877,178.824 95.6877,178.324 99.5,177.5 Z"/></g>
<g><path style="opacity:0.913" fill="#012369" d="M 78.5,196.5 C 79.1666,190.654 79.8332,184.654 80.5,178.5C 81.7202,177.289 82.8869,177.289 84,178.5C 84.6667,185.833 84.6667,193.167 84,200.5C 81.098,201.149 79.2646,199.816 78.5,196.5 Z"/></g>
<g><path style="opacity:0.886" fill="#002168" d="M 177.5,177.5 C 179.017,177.511 180.184,178.177 181,179.5C 181.667,186.167 181.667,192.833 181,199.5C 179.149,201.781 177.482,201.781 176,199.5C 175.333,192.833 175.333,186.167 176,179.5C 176.717,178.956 177.217,178.289 177.5,177.5 Z"/></g>
<g><path style="opacity:0.668" fill="#022267" d="M 185.5,177.5 C 186.458,177.953 187.292,178.619 188,179.5C 188.499,184.823 188.666,190.156 188.5,195.5C 191.518,195.335 194.518,195.502 197.5,196C 198.833,197.333 198.833,198.667 197.5,200C 192.781,201.933 188.114,201.766 183.5,199.5C 182.372,192.884 182.205,186.218 183,179.5C 183.995,178.934 184.828,178.267 185.5,177.5 Z"/></g>
<g><path style="opacity:0.985" fill="#01246a" d="M 78.5,196.5 C 70.6685,203.538 63.8352,202.538 58,193.5C 56.5727,184.423 60.406,179.089 69.5,177.5C 72.8101,177.64 75.1434,179.14 76.5,182C 76.3552,182.772 76.0219,183.439 75.5,184C 73.2865,184.626 71.1199,184.459 69,183.5C 62.7583,186.109 61.925,189.943 66.5,195C 68.728,195.82 70.728,195.487 72.5,194C 69.3072,192.974 67.9738,190.808 68.5,187.5C 76.4765,185.633 79.8098,188.633 78.5,196.5 Z"/></g>
<g><path style="opacity:0.531" fill="#107dea" d="M 80.5,204.5 C 82.6648,204.116 84.3315,204.783 85.5,206.5C 85.2907,207.086 84.9574,207.586 84.5,208C 87.8333,213 86.5,215.333 80.5,215C 80.0426,214.586 79.7093,214.086 79.5,213.5C 80.7287,212.719 82.062,212.219 83.5,212C 80.0762,210.336 79.0762,207.836 80.5,204.5 Z"/></g>
<g><path style="opacity:0.51" fill="#1783ec" d="M 150.5,204.5 C 152.149,205.714 153.815,207.047 155.5,208.5C 156.167,207.167 156.833,205.833 157.5,204.5C 158.248,207.497 158.915,210.497 159.5,213.5C 156.965,214.503 154.798,213.837 153,211.5C 150.708,216.609 149.541,216.109 149.5,210C 149.581,208.076 149.914,206.243 150.5,204.5 Z"/></g>
<g><path style="opacity:0.7" fill="#1684ed" d="M 106.5,204.5 C 114.168,204.507 116.168,207.84 112.5,214.5C 107.385,216.727 104.385,215.06 103.5,209.5C 103.757,207.308 104.757,205.641 106.5,204.5 Z M 106.5,207.5 C 108.167,207.5 109.833,207.5 111.5,207.5C 109.889,215.44 108.222,215.44 106.5,207.5 Z"/></g>
<g><path style="opacity:0.776" fill="#1488ec" d="M 172.5,204.5 C 174.026,205.105 175.026,206.271 175.5,208C 176.448,208.483 177.448,208.649 178.5,208.5C 178.884,204.058 179.884,203.724 181.5,207.5C 180.94,209.854 180.273,212.187 179.5,214.5C 178.614,213.675 178.281,212.675 178.5,211.5C 175.95,211.561 174.45,212.894 174,215.5C 172.585,212.042 172.085,208.375 172.5,204.5 Z"/></g>
<g><path style="opacity:0.725" fill="#1e80ec" d="M 212.5,204.5 C 214.924,204.192 217.257,204.526 219.5,205.5C 218.335,206.584 217.002,207.417 215.5,208C 219.361,209.343 219.361,210.843 215.5,212.5C 216.729,213.281 218.062,213.781 219.5,214C 217.406,215.352 215.073,215.852 212.5,215.5C 211.669,211.755 211.669,208.088 212.5,204.5 Z"/></g>
<g><path style="opacity:0.544" fill="#067beb" d="M 138.5,204.5 C 140.411,204.574 141.578,205.574 142,207.5C 142.642,209.762 143.475,211.929 144.5,214C 144,214.5 143.5,215 143,215.5C 140.788,211.664 138.454,211.664 136,215.5C 136.192,211.751 137.025,208.084 138.5,204.5 Z"/></g>
<g><path style="opacity:0.827" fill="#1189ee" d="M 199.5,204.5 C 201.792,204.244 203.959,204.577 206,205.5C 206.056,208.267 206.222,210.933 206.5,213.5C 204.956,214.622 203.623,214.289 202.5,212.5C 201.667,213.5 200.833,214.5 200,215.5C 199.501,211.848 199.335,208.182 199.5,204.5 Z"/></g>
<g><path style="opacity:0.437" fill="#1f8ced" d="M 189.5,203.5 C 194.243,204.141 194.577,205.641 190.5,208C 193.096,209.797 192.763,211.131 189.5,212C 190.759,212.923 192.092,213.757 193.5,214.5C 191.257,215.474 188.924,215.808 186.5,215.5C 186.5,211.833 186.5,208.167 186.5,204.5C 187.791,204.737 188.791,204.404 189.5,203.5 Z"/></g>
<g><path style="opacity:0.641" fill="#077aec" d="M 92.5,204.5 C 93.1174,204.611 93.6174,204.944 94,205.5C 94.3333,207.833 94.6667,210.167 95,212.5C 96.3988,213.227 97.8988,213.727 99.5,214C 97.12,215.757 94.62,215.923 92,214.5C 91.2534,211.076 91.42,207.743 92.5,204.5 Z"/></g>
<g><path style="opacity:0.469" fill="#188bea" d="M 122.5,204.5 C 130.055,205.26 130.222,206.594 123,208.5C 122.146,210.607 122.812,211.941 125,212.5C 126.054,211.518 126.554,210.351 126.5,209C 127.448,208.517 128.448,208.351 129.5,208.5C 130.487,214.331 128.154,216.498 122.5,215C 118.736,211.56 118.736,208.06 122.5,204.5 Z"/></g>
</svg>
